<svg xmlns="http://www.w3.org/2000/svg" width="2160" height="2161" viewBox="0 0 2160 2161" fill="none"><rect width="2160" height="2161" fill="#0B375B"></rect><circle cx="440" cy="440" r="352" fill="#0B375B"></circle><path d="M1108.7 1012.06C1142.68 1036.73 1179.2 1048.19 1222.05 1054.66C1521.31 1088.47 1480.47 1198.49 1454.55 1327.95C1585.68 1138.56 1634.73 1000.84 1616.23 883.138C1596.26 756.087 1506.92 663.653 1479.07 611.963C1478.62 612.184 1478.09 612.473 1477.65 612.697C1475.82 613.797 1474.03 614.877 1472.17 615.997C1458.14 624.453 1443.13 633.497 1427.43 643.364C1419.58 648.298 1411.56 653.437 1403.4 658.811C1395.24 664.185 1386.94 669.795 1378.54 675.668C1370.14 681.542 1361.64 687.68 1353.07 694.111C1344.5 700.542 1335.87 707.267 1327.21 714.314C1322.87 717.838 1318.53 721.442 1314.19 725.131C1309.85 728.82 1305.5 732.593 1301.16 736.454C1296.81 740.315 1292.47 744.265 1288.13 748.306C1283.79 752.347 1279.46 756.479 1275.14 760.707C1270.81 764.935 1266.5 769.258 1262.2 773.68C1257.91 778.102 1253.62 782.624 1249.36 787.248C1245.09 791.872 1240.85 796.598 1236.63 801.431C1232.41 806.264 1228.21 811.202 1224.04 816.252C1219.87 821.301 1215.73 826.461 1211.62 831.733C1207.51 837.006 1203.43 842.392 1199.39 847.896C1195.35 853.4 1191.34 859.021 1187.38 864.763C1183.42 870.505 1179.5 876.367 1175.62 882.355C1171.74 888.342 1167.92 894.455 1164.14 900.695C1160.36 906.936 1156.63 913.304 1152.95 919.804C1149.28 926.305 1145.66 932.938 1142.1 939.706C1138.53 946.474 1135.03 953.377 1131.59 960.42C1128.15 967.463 1124.78 974.646 1121.47 981.971C1118.16 989.296 1114.93 996.764 1111.76 1004.38C1110.71 1006.89 1109.73 1009.52 1108.7 1012.06Z" fill="white"></path><path d="M1099.48 1035.91C1097.52 1041.18 1095.56 1046.44 1093.67 1051.86C1092.07 1056.46 1090.56 1061.04 1089.16 1065.59C1087.75 1070.13 1086.43 1074.64 1085.21 1079.11C1083.99 1083.59 1082.86 1088.02 1081.81 1092.42C1080.77 1096.82 1079.81 1101.18 1078.93 1105.49C1078.06 1109.81 1077.26 1114.08 1076.54 1118.31C1075.82 1122.54 1075.18 1126.73 1074.61 1130.87C1074.04 1135.01 1073.54 1139.1 1073.11 1143.14C1072.68 1147.19 1072.32 1151.18 1072.02 1155.12C1071.72 1159.06 1071.48 1162.95 1071.3 1166.79C1071.12 1170.63 1071 1174.41 1070.93 1178.13C1070.86 1181.77 1070.99 1185.17 1071.02 1188.7C1135.92 1189.2 1256.98 1187.6 1375.17 1111.72C1372.97 1110.61 1370.58 1109.5 1367.87 1108.38C1364.93 1107.16 1361.77 1105.97 1358.41 1104.81C1355.05 1103.65 1351.49 1102.52 1347.76 1101.41C1344.03 1100.31 1340.13 1099.23 1336.08 1098.18C1332.03 1097.13 1327.84 1096.11 1323.53 1095.12C1314.93 1093.15 1305.97 1091.32 1296.89 1089.62C1287.81 1087.93 1278.62 1086.37 1269.56 1084.95C1260.49 1083.53 1251.56 1082.24 1243.01 1081.08C1234.45 1079.93 1226.28 1078.9 1218.72 1078C1214.59 1077.51 1210.6 1076.97 1206.75 1076.4C1202.9 1075.83 1199.2 1075.23 1195.62 1074.59C1188.48 1073.31 1181.87 1071.9 1175.74 1070.39C1169.6 1068.87 1163.94 1067.26 1158.69 1065.58C1153.45 1063.89 1148.62 1062.13 1144.14 1060.33C1139.67 1058.53 1135.55 1056.68 1131.72 1054.83C1127.9 1052.97 1124.36 1051.1 1121.07 1049.24C1117.78 1047.38 1114.72 1045.54 1111.83 1043.75C1108.95 1041.96 1106.24 1040.21 1103.65 1038.53C1102.19 1037.59 1100.88 1036.8 1099.48 1035.91Z" fill="white"></path><path d="M1098.86 405.188C868.793 405.188 743.545 510.805 679.34 585.714L811.024 585.715C835.962 585.715 856.358 606.253 857.011 632.019L857.859 665.485C858.152 677.062 867.316 686.288 878.519 686.288H933.937C933.912 685.274 933.899 684.257 933.899 683.237C933.899 616.066 986.584 561.612 1051.58 561.612C1116.57 561.612 1169.25 616.066 1169.25 683.237C1169.25 750.409 1116.57 804.862 1051.58 804.862C996.337 804.862 949.997 765.522 937.33 712.474H878.521C853.582 712.474 833.185 691.937 832.532 666.171L831.685 632.704C831.391 621.128 822.228 611.901 811.024 611.901L658.193 611.9C651.602 620.539 645.976 628.352 641.237 635.002C629.788 651.066 614.243 675.758 598.771 707.355H720.523C725.256 695.057 736.724 686.22 750.336 685.852C768.556 685.359 783.715 700.226 784.191 719.058C784.668 737.889 770.283 753.555 752.062 754.048C738.21 754.423 726.136 745.915 720.93 733.541H586.726C567.783 777.442 550.676 831.494 543.535 892.391L592.976 892.618C604.391 892.671 613.687 883.149 613.737 871.352L613.874 839.501C613.987 813.325 634.55 792.165 659.878 792.165L838.687 792.166C843.058 779.128 854.878 769.615 869.012 769.233C887.233 768.739 902.391 783.606 902.868 802.438C903.344 821.27 888.96 836.935 870.739 837.429C857.427 837.789 845.759 829.945 840.248 818.352L659.878 818.351C648.499 818.351 639.26 827.858 639.209 839.618L639.073 871.469C638.959 897.728 618.27 918.921 592.863 918.804L541.118 918.565C533.955 1026.61 559.779 1153.6 660.209 1282.75C799.524 1461.91 1053.19 1510.84 1163.2 1755.81C1210.02 1524.09 1076.41 1407.71 1053.55 1266.88C1053.1 1264.6 1052.61 1262.5 1052.18 1260.1C1051.15 1254.42 1050.18 1248.41 1049.33 1242.1C1048.47 1235.79 1047.72 1229.17 1047.12 1222.27C1046.52 1215.37 1046.06 1208.18 1045.8 1200.74C1045.53 1193.29 1045.45 1185.58 1045.6 1177.62C1045.67 1173.65 1045.8 1169.61 1045.99 1165.52C1046.18 1161.42 1046.44 1157.27 1046.76 1153.07C1047.08 1148.86 1047.47 1144.6 1047.92 1140.29C1048.38 1135.97 1048.92 1131.61 1049.52 1127.19C1050.13 1122.78 1050.81 1118.31 1051.58 1113.8C1052.35 1109.29 1053.19 1104.74 1054.13 1100.14C1055.06 1095.54 1056.08 1090.89 1057.2 1086.21C1058.31 1081.52 1059.52 1076.79 1060.82 1072.03C1062.12 1067.26 1063.52 1062.46 1065.02 1057.62C1066.52 1052.78 1068.12 1047.9 1069.83 1042.99C1072.79 1034.5 1075.83 1026.16 1078.95 1017.97C1082.07 1009.79 1085.28 1001.76 1088.55 993.881C1091.83 986.004 1095.19 978.277 1098.61 970.698C1102.04 963.12 1105.53 955.688 1109.09 948.401C1112.65 941.114 1116.28 933.97 1119.97 926.967C1123.66 919.963 1127.41 913.101 1131.21 906.374C1135.02 899.648 1138.88 893.058 1142.79 886.601C1146.71 880.144 1150.67 873.82 1154.69 867.625C1158.7 861.43 1162.76 855.364 1166.86 849.423C1170.96 843.483 1175.11 837.667 1179.29 831.974C1183.47 826.28 1187.69 820.709 1191.94 815.255C1196.19 809.801 1200.48 804.466 1204.79 799.245C1209.1 794.023 1213.44 788.917 1217.81 783.92C1222.17 778.924 1226.56 774.038 1230.96 769.259C1235.37 764.481 1239.79 759.808 1244.23 755.239C1248.66 750.671 1253.11 746.206 1257.57 741.84C1262.03 737.474 1266.5 733.208 1270.98 729.038C1275.45 724.867 1279.93 720.793 1284.4 716.81C1288.88 712.828 1293.36 708.936 1297.83 705.135C1302.3 701.333 1306.76 697.621 1311.22 693.992C1320.13 686.735 1329 679.816 1337.79 673.208C1346.59 666.599 1355.3 660.298 1363.9 654.279C1372.5 648.259 1380.98 642.521 1389.31 637.031C1397.64 631.542 1405.81 626.303 1413.79 621.285C1421.77 616.266 1429.56 611.469 1437.12 606.862C1444.68 602.255 1452.01 597.84 1459.07 593.586C1461.36 592.209 1463.56 590.881 1465.79 589.536C1404.96 500.556 1243.47 405.187 1098.86 405.188Z" fill="white"></path><path d="M1051.58 771.785C1101.1 771.785 1141.25 730.907 1141.25 680.48C1141.25 630.054 1101.1 589.175 1051.58 589.175C1002.05 589.175 961.904 630.054 961.904 680.48C961.904 730.907 1002.05 771.785 1051.58 771.785Z" fill="white"></path></svg>